<svg width="258" height="34" viewBox="0 0 258 34" fill="white" xmlns="http://www.w3.org/2000/svg">
<path d="M21.6086 6.93026C21.4004 9.0272 20.2277 11.1241 18.0943 13.2247C16.1727 15.1317 14.1342 16.414 11.9861 17.0788C11.303 17.2871 10.8427 17.393 10.5979 17.393C10.2326 17.393 10.0463 17.1848 10.0463 16.7647C10.0463 16.8158 10.1084 16.4943 10.2289 15.7929C10.386 14.9015 10.6929 14.2549 11.1459 13.8531C11.3541 13.7471 11.9752 13.3891 13.009 12.779C14.3534 11.9242 15.3763 11.1461 16.0777 10.4446C17.0568 9.44732 17.7216 8.32944 18.0723 7.08735V6.72203C18.0723 5.67357 17.3746 5.14751 15.9754 5.14751C15.0475 5.14751 14.0611 5.41784 13.0127 5.96217C10.565 7.23713 8.23065 9.57883 6.0095 12.9909C5.34462 14.0065 4.72358 15.1134 4.14638 16.3226C3.70799 17.214 3.48149 18.3063 3.46323 19.5995C3.4267 22.1349 4.5738 23.6034 6.89723 24.0053C7.01779 24.0053 7.20045 24.0309 7.43425 24.082C7.67171 24.1332 7.85071 24.1587 7.97127 24.1587C9.30103 24.1587 10.6016 23.7313 11.8765 22.8728C13.0638 22.0691 13.9844 21.0462 14.631 19.8041C14.9452 19.8041 15.4274 19.9612 16.0741 20.2754C16.8266 20.6444 17.254 21.0279 17.36 21.4298C16.801 23.1797 15.4895 24.619 13.4255 25.7552C11.5551 26.8036 9.64078 27.3297 7.68267 27.3297C6.19582 27.3297 4.85875 27.0228 3.67146 26.4127C2.37823 25.7479 1.44301 24.893 0.865807 23.8409C0.288602 22.7924 0 21.5759 0 20.195C0 17.3638 1.05577 14.3572 3.17097 11.1753C7.35388 4.90274 11.7596 1.76465 16.3919 1.76465H16.4978C17.9847 1.76465 19.2085 2.19573 20.1693 3.06153C21.1301 3.92734 21.6123 5.09271 21.6123 6.56129V6.92661L21.6086 6.93026Z" fill="white"/>
<path d="M31.2675 19.3659C31.0118 19.6216 30.7269 19.7385 30.4127 19.7166C30.0985 19.6947 29.777 19.6289 29.4519 19.523C29.1268 19.417 28.787 19.3257 28.44 19.2453C28.0893 19.1649 27.7422 19.2051 27.3915 19.3659C26.9239 19.5997 26.6682 19.9138 26.6243 20.3084C26.5768 20.7029 26.6243 21.1523 26.7632 21.6528C26.902 22.1533 27.0993 22.672 27.355 23.2054C27.6107 23.7424 27.8153 24.2575 27.9651 24.758C28.1148 25.2585 28.1696 25.7188 28.1221 26.1389C28.0747 26.559 27.8299 26.8841 27.3879 27.1179C26.712 27.4906 26.0325 27.7463 25.3457 27.8851C24.6589 28.0239 24.0488 27.8267 23.5118 27.2896C22.4853 26.2412 21.7656 25.1525 21.3455 24.0237C20.9254 22.8949 20.739 21.8026 20.7865 20.7395C20.834 19.68 21.1007 18.6973 21.5902 17.7877C22.0798 16.878 22.7191 16.1109 23.5118 15.4825C23.815 15.2487 24.1511 15.0514 24.5238 14.8907C24.8964 14.7263 25.269 14.635 25.6416 14.6094C26.0143 14.5875 26.3577 14.6386 26.6718 14.7665C26.986 14.8944 27.2235 15.1318 27.3879 15.4825C27.4573 15.6469 27.4755 15.815 27.439 15.9903C27.4025 16.1657 27.3586 16.3337 27.3002 16.4981C27.2417 16.6625 27.2088 16.8196 27.1942 16.9694C27.1833 17.1228 27.2454 17.2653 27.3879 17.4078C27.6436 17.6635 27.9651 17.7913 28.3486 17.7913C28.7322 17.7913 29.0537 17.6635 29.3094 17.4078C29.4483 17.2689 29.5031 17.1155 29.4665 16.9548C29.43 16.7904 29.3861 16.6223 29.3277 16.447C29.2692 16.2716 29.2218 16.1036 29.1889 15.9392C29.1523 15.7784 29.1925 15.625 29.3094 15.4862C29.5652 15.2085 29.8684 15.0916 30.2191 15.1355C30.5698 15.183 30.9168 15.2999 31.2675 15.4862C31.5927 15.6506 31.8265 15.8953 31.9653 16.2205C32.1041 16.5456 32.1699 16.9 32.1589 17.2872C32.148 17.6744 32.0603 18.0507 31.8959 18.4233C31.7315 18.796 31.5233 19.1101 31.2675 19.3659Z" fill="white"/>
<path d="M39.0235 23.6253H35.5273V13.1553H39.0235V16.6514H45.9974V20.1292H39.0235V23.6253H49.4935V27.1214H39.0235V23.6253ZM49.4935 13.1553H39.0235V9.65918H49.4935V13.1553H52.9896V16.6514H49.4935V13.1553ZM49.4935 20.1292H52.9896V23.6253H49.4935V20.1292Z" fill="white"/>
<path d="M64.8592 9.64062H64.9432C66.4995 9.64062 67.5808 10.5503 68.1836 12.3696C68.5489 11.5622 68.9581 10.7366 69.4111 9.89635C69.685 9.89635 70.0284 9.92192 70.4413 9.97307C70.8541 10.0242 71.2669 10.1776 71.676 10.4334C72.0852 10.6891 72.4322 11.1129 72.7172 11.7047C72.4213 12.1942 72.0414 12.9248 71.5737 13.9039C71.1061 14.883 70.6604 15.957 70.2257 17.126C69.8604 18.1051 69.5206 19.1645 69.2028 20.308C68.885 21.4514 68.7243 22.4012 68.7243 23.1647C68.7243 23.5301 68.7791 23.8223 68.885 24.0415C68.9909 24.2644 69.1663 24.3813 69.4037 24.3922H69.422C69.8531 24.3922 70.3353 24.1402 70.8723 23.6324C71.4057 23.1282 71.9135 22.5254 72.3921 21.835C72.8706 21.1409 73.2506 20.4833 73.5355 19.8586C73.6963 19.8586 73.8278 19.8915 73.9374 19.9536C74.047 20.0157 74.1273 20.0924 74.1858 20.1837C74.2442 20.2751 74.2808 20.3664 74.3063 20.4577C74.3319 20.5491 74.3465 20.655 74.3575 20.7829C73.7328 22.1345 73.119 23.2342 72.5163 24.0744C71.9135 24.9146 71.3253 25.5576 70.7518 25.9996C70.1782 26.4417 69.6376 26.7412 69.1334 26.8947C68.6293 27.0481 68.169 27.1248 67.7598 27.1248C66.9999 27.1248 66.3862 26.8216 65.9259 26.2115C65.4656 25.6014 65.2026 24.7356 65.1332 23.6104C63.8472 25.2361 62.4554 26.3211 60.9539 26.8691C60.4425 27.0408 59.9529 27.1248 59.489 27.1248C58.4076 27.0919 57.5528 26.6316 56.9208 25.7439C56.2888 24.8562 55.9746 23.6652 55.9746 22.1638C55.9746 21.6304 56.0184 21.0605 56.1098 20.4577C56.5189 18.0357 57.4213 15.8328 58.8131 13.8491C60.205 11.8654 61.7722 10.5503 63.5111 9.9C63.9897 9.7283 64.4391 9.64428 64.8592 9.64428V9.64062ZM66.0026 12.3878C65.9223 12.3294 65.7688 12.3038 65.5423 12.3038C65.4072 12.3038 65.2537 12.3257 65.082 12.3732C63.6719 13.0308 62.3458 14.682 61.1073 17.3196C60.7201 18.1964 60.4425 18.938 60.2708 19.5554C59.942 20.7609 59.7776 21.7765 59.7776 22.6095C59.7776 23.6104 60.015 24.2644 60.4936 24.5712C60.6543 24.6516 60.8114 24.6918 60.9722 24.6918C61.1439 24.6918 61.2973 24.6589 61.4325 24.5895C62.8316 23.9319 64.1505 22.2807 65.3889 19.6431C65.5606 19.2668 65.7031 18.9344 65.8163 18.6384C65.9296 18.3425 65.988 18.1891 65.988 18.1781L65.9697 18.211C66.072 17.8713 66.1816 17.5388 66.2949 17.221C66.5908 16.1287 66.7369 15.1862 66.7369 14.3898C66.7369 13.3888 66.4922 12.7239 66.0026 12.3951V12.3878Z" fill="white"/>
<path d="M83.8812 7.77409C83.9725 7.75218 84.1077 7.71564 84.283 7.66815C84.4584 7.62066 84.6447 7.56952 84.842 7.51106C85.0392 7.45261 85.2256 7.40512 85.4009 7.37224C85.5763 7.33571 85.6968 7.3211 85.7662 7.3211C86.2302 7.3211 86.643 7.47453 87.0047 7.77409C87.3663 8.07731 87.5453 8.47185 87.5453 8.96138C87.5453 9.45091 87.3882 9.83084 87.0741 10.0975C86.7599 10.3642 86.38 10.5797 85.9379 10.7441C85.4959 10.9085 85.0429 11.0547 84.5753 11.1825C84.1077 11.3104 83.7387 11.493 83.4574 11.7232C83.3405 13.3781 83.1652 15.0366 82.935 16.6988C82.7012 18.3647 82.4674 20.0342 82.2372 21.711C82.0034 23.3878 81.7952 25.0683 81.6089 26.7561C81.4226 28.4439 81.3313 30.128 81.3313 31.8012C81.3313 32.2651 81.1669 32.6779 80.8417 33.0396C80.5166 33.4012 80.1184 33.5803 79.6544 33.5803C78.9567 33.5803 78.4306 33.2953 78.0836 32.7254C77.7329 32.1555 77.4954 31.487 77.3675 30.7162C77.2397 29.949 77.1812 29.1635 77.1922 28.3598C77.2031 27.5561 77.2104 26.9095 77.2104 26.42C77.2104 24.3961 77.3091 22.3869 77.5064 20.3959C77.7036 18.4049 77.8023 16.3956 77.8023 14.3718L77.7657 13.9516C77.6269 13.9991 77.4443 14.0576 77.2251 14.127C77.0022 14.1964 76.783 14.2658 76.5602 14.3352C76.3373 14.4046 76.1291 14.4631 75.9318 14.5106C75.7346 14.5581 75.5665 14.58 75.424 14.58C74.9345 14.58 74.5107 14.401 74.1491 14.0393C73.7874 13.6777 73.6084 13.2648 73.6084 12.8009C73.6084 12.1725 73.8532 11.694 74.3427 11.3688C74.8322 11.0437 75.3656 10.7624 75.9501 10.5323C76.531 10.2985 77.068 10.0683 77.5575 9.8345C78.047 9.60069 78.2918 9.25364 78.2918 8.78603C78.2918 8.36591 78.3247 7.85081 78.3977 7.23342C78.4671 6.61603 78.606 6.02787 78.8179 5.46893C79.0261 4.90999 79.311 4.43142 79.6727 4.03688C80.0344 3.64233 80.4947 3.44141 81.0536 3.44141C81.6125 3.44141 82.0327 3.56927 82.3797 3.82499C82.7268 4.08071 83.0008 4.4022 83.2017 4.78578C83.399 5.16937 83.5378 5.59314 83.6218 6.06075C83.7022 6.52836 83.7424 6.97039 83.7424 7.38686C83.7424 7.50376 83.7899 7.63162 83.8812 7.77044V7.77409Z" fill="white"/>
<path d="M88.6553 26.5551C89.7951 26.4382 90.5074 26.2226 90.7924 25.9121C91.0773 25.6016 91.2198 24.86 91.2198 23.6873V6.36386C91.5523 6.95568 91.8701 7.47078 92.1696 7.91282C92.9003 8.95398 93.4811 9.51292 93.9086 9.58963V23.691C93.9086 24.9586 94.0876 25.7368 94.4419 26.029C94.7744 26.2774 95.4502 26.4528 96.4731 26.5624V27.125H88.6553V26.5624V26.5551ZM92.1514 3.70434L90.2992 1.85217L92.1514 0L94.0035 1.85217L92.1514 3.70434Z" fill="white"/>
<path d="M97.7198 11.1968H103.145L103.313 11.3831V12.6361H104.588L104.774 12.8224V14.0937H107.675V11.3794L107.843 11.1931H113.268L113.454 11.3794V12.6325H114.725L114.893 12.8188V18.2438L114.725 18.4301H113.454V21.1444L113.268 21.3307H112.015V22.5838L111.828 22.7701H110.557V25.4844L110.389 25.6707H109.118V26.9238L108.931 27.1101H104.946L104.778 26.9238V25.6707H103.503L103.316 25.4844V24.2094H102.063L101.877 24.0414V22.7701H100.606L100.438 22.5838V19.8694H99.1628L98.9765 19.7014V16.9688H97.7234L97.5371 16.8008V11.3758L97.7234 11.1895L97.7198 11.1968ZM98.9728 12.6361V15.5368H100.248L100.434 15.7231V18.4374H101.687L101.873 18.6054V21.338H103.145L103.313 21.5061V22.7774H104.588L104.774 22.9637V24.2167H106.213V22.9637L106.4 22.7774H107.675V21.5061L107.843 21.338H109.118V18.6054L109.304 18.4374H110.557V15.7231L110.743 15.5368H112.018V12.6361H109.118V15.3504L108.931 15.5368H107.678V18.2511L107.492 18.4374H106.221V21.1517L106.053 21.338H104.946L104.778 21.1517V18.4374H103.503L103.316 18.2511V15.5368H102.063L101.877 15.3504V12.6361H98.9765H98.9728Z" fill="white"/>
<path d="M120.439 19.1248C120.3 19.6619 120.187 20.1441 120.106 20.5752C120.026 21.0062 120.008 21.4556 120.055 21.9195C120.146 22.6173 120.409 23.1653 120.84 23.5598C121.272 23.9544 121.754 24.2064 122.291 24.3124C122.828 24.4183 123.368 24.3781 123.916 24.1918C124.464 24.0055 124.888 23.6804 125.191 23.2128C125.473 23.0045 125.772 22.8474 126.101 22.7415C126.426 22.6356 126.729 22.6136 127.011 22.6721C127.288 22.7305 127.533 22.8657 127.745 23.0739C127.953 23.2822 128.096 23.5963 128.165 24.0165C128.235 24.506 128.085 24.9809 127.712 25.4485C127.339 25.9161 126.887 26.3326 126.349 26.7052C125.812 27.0778 125.243 27.392 124.64 27.6477C124.033 27.9035 123.533 28.0532 123.138 28.1007C122.207 28.2176 121.341 28.1628 120.537 27.9436C119.734 27.7208 119.018 27.3664 118.389 26.8769C117.761 26.3874 117.242 25.7773 116.837 25.043C116.427 24.3087 116.168 23.4904 116.051 22.5808C115.912 21.441 115.974 20.2464 116.245 19.0006C116.511 17.7549 116.972 16.6078 117.626 15.5593C118.276 14.5109 119.087 13.6341 120.051 12.9217C121.016 12.213 122.13 11.8002 123.387 11.6833C124.457 11.5919 125.279 11.771 125.849 12.224C126.419 12.6769 126.77 13.2615 126.897 13.9702C127.025 14.6826 126.96 15.4315 126.704 16.2242C126.448 17.0169 126.035 17.7037 125.465 18.2846C124.896 18.8655 124.179 19.2673 123.317 19.4902C122.455 19.713 121.502 19.5888 120.453 19.1248H120.439ZM120.998 17.2361C121.231 17.2361 121.509 17.2142 121.834 17.1667C122.159 17.1192 122.47 17.0169 122.758 16.8525C123.051 16.6882 123.281 16.4397 123.456 16.1C123.632 15.7639 123.683 15.2926 123.613 14.6862C123.358 14.7337 123.094 14.8506 122.828 15.0369C122.561 15.2232 122.298 15.4497 122.042 15.7164C121.787 15.9831 121.564 16.2534 121.377 16.5201C121.191 16.7868 121.063 17.0279 120.994 17.2361H120.998Z" fill="white"/>
<path d="M156.313 29.73C156.064 29.6862 155.918 29.5656 155.874 29.3683C155.83 29.1711 155.918 29.014 156.137 28.8971C156.196 27.8157 156.342 26.7526 156.576 25.7151C156.809 24.6776 156.992 23.6145 157.124 22.5332C157.255 21.4519 157.288 20.3742 157.222 19.3074C157.157 18.2407 157.087 17.1703 157.014 16.1036C156.985 15.5483 156.963 15.004 156.948 14.467C156.934 13.9336 156.926 13.3893 156.926 12.8303C156.926 12.6696 156.919 12.56 156.904 12.5015C156.656 12.7061 156.455 12.9691 156.302 13.2906C156.148 13.6121 156.013 13.919 155.896 14.2112C155.706 14.635 155.549 15.077 155.425 15.541C155.301 16.0013 155.136 16.4433 154.932 16.8708C154.756 17.2215 154.555 17.5612 154.329 17.89C154.102 18.2188 153.953 18.5805 153.88 18.975C153.85 19.0334 153.807 19.1065 153.748 19.1942C153.733 19.2965 153.686 19.3842 153.606 19.4572C153.525 19.5303 153.419 19.5668 153.288 19.5668C153.259 19.596 153.211 19.596 153.145 19.5668C153.08 19.5376 153.017 19.523 152.959 19.523H151.333C151.041 19.523 150.763 19.5011 150.5 19.4572C150.384 19.5449 150.245 19.5814 150.084 19.5668C149.938 19.5376 149.821 19.4645 149.733 19.3476C149.646 19.2307 149.551 19.1211 149.448 19.0188C149.244 18.7704 149.061 18.5293 148.9 18.2955C148.74 18.0617 148.586 17.806 148.44 17.5283C148.352 17.353 148.246 17.1119 148.122 16.805C147.998 16.4981 147.859 16.1693 147.706 15.8186C147.552 15.4679 147.388 15.1172 147.213 14.7629C147.037 14.4122 146.855 14.1053 146.665 13.8423C146.723 14.3975 146.763 14.9492 146.785 15.5008C146.807 16.0488 146.84 16.6004 146.884 17.1594C146.957 18.2553 147.048 19.3549 147.158 20.4509C147.267 21.5468 147.359 22.6538 147.432 23.7643C147.432 23.8374 147.45 24.0858 147.487 24.5096C147.523 24.9334 147.556 25.4119 147.585 25.9489C147.614 26.4823 147.633 27.012 147.64 27.5417C147.647 28.0678 147.629 28.477 147.585 28.7729C147.673 28.8898 147.691 29.0249 147.64 29.1784C147.589 29.3318 147.468 29.4231 147.278 29.4524C146.898 29.4524 146.486 29.4377 146.036 29.4085C145.591 29.3793 145.145 29.3647 144.699 29.3647C144.253 29.3647 143.811 29.3939 143.38 29.4524C142.949 29.5108 142.551 29.6277 142.182 29.8031C142.138 29.8761 142.076 29.9309 141.996 29.9675C141.915 30.004 141.839 30.0076 141.766 29.9784C141.576 29.993 141.43 29.92 141.327 29.7592C141.225 29.5985 141.254 29.4377 141.415 29.277C141.43 25.1343 141.451 21.0135 141.481 16.9182C141.51 12.823 141.532 8.69856 141.546 4.55949C141.517 4.47181 141.503 4.3951 141.503 4.32934C141.503 4.26358 141.532 4.17956 141.59 4.07727C141.678 3.97498 141.784 3.90557 141.908 3.86904C142.032 3.83251 142.167 3.81424 142.314 3.81424C142.46 3.81424 142.602 3.8252 142.741 3.84712C142.88 3.86904 143 3.88 143.103 3.88C143.95 3.86538 144.79 3.83981 145.616 3.80328C146.442 3.76675 147.275 3.74118 148.108 3.72656C148.312 3.79963 148.433 3.91288 148.469 4.06631C148.506 4.21974 148.466 4.35491 148.349 4.47181C148.802 5.15861 149.123 5.81619 149.313 6.43723C149.503 7.05828 149.642 7.68663 149.73 8.31497C149.817 8.94332 149.89 9.59359 149.949 10.2585C150.007 10.9234 150.139 11.6394 150.343 12.3992C150.431 12.7061 150.5 12.9399 150.552 13.1007C150.603 13.2614 150.665 13.4039 150.738 13.5281C150.811 13.6523 150.899 13.7802 151.001 13.9117C151.103 14.0432 151.242 14.2405 151.417 14.5035C151.447 14.5619 151.469 14.6131 151.483 14.6569C151.512 14.5839 151.531 14.5218 151.538 14.4706C151.545 14.4195 151.556 14.3793 151.571 14.3501C151.688 13.9701 151.837 13.6231 152.02 13.3089C152.203 12.9947 152.396 12.6696 152.601 12.3335C152.952 11.7344 153.27 11.106 153.554 10.4557C153.839 9.80548 154.117 9.15156 154.387 8.50129C154.658 7.85102 154.943 7.2044 155.242 6.56875C155.542 5.93309 155.889 5.33031 156.287 4.75676C156.17 4.65447 156.123 4.52661 156.145 4.37318C156.167 4.21974 156.28 4.10649 156.484 4.03343C156.923 3.93114 157.405 3.86904 157.935 3.84712C158.461 3.8252 158.998 3.8252 159.549 3.84712C160.101 3.86904 160.638 3.89826 161.175 3.93479C161.708 3.97133 162.209 3.9969 162.68 4.01151C162.782 4.05535 162.87 4.1138 162.943 4.18687C162.958 4.20148 162.972 4.21244 162.987 4.21974C163.002 4.22705 163.016 4.23801 163.031 4.25262C163.309 4.93942 163.498 5.65545 163.601 6.39339C163.703 7.13134 163.758 7.88024 163.765 8.6328C163.772 9.38536 163.754 10.1416 163.71 10.8941C163.667 11.6467 163.63 12.3846 163.601 13.1007C163.44 16.8488 163.243 20.5641 163.009 24.2539C162.98 24.7653 162.947 25.1854 162.91 25.5142C162.874 25.843 162.841 26.1389 162.812 26.4019C162.782 26.665 162.757 26.928 162.735 27.191C162.713 27.4541 162.695 27.7755 162.68 28.1555C162.666 28.2724 162.633 28.4039 162.582 28.55C162.53 28.6961 162.476 28.8496 162.417 29.0103C162.607 29.0395 162.739 29.1638 162.812 29.3829C162.812 29.5145 162.775 29.6679 162.702 29.8432C162.629 30.0186 162.53 30.1611 162.406 30.2707C162.282 30.3803 162.147 30.4387 162.001 30.446C161.855 30.4533 161.716 30.3547 161.584 30.1501C161.555 30.1063 161.529 30.0588 161.507 30.0076C161.486 29.9565 161.467 29.9017 161.453 29.8432C160.693 29.7848 159.918 29.7117 159.137 29.6241C158.355 29.5364 157.58 29.5437 156.82 29.646C156.689 29.719 156.565 29.7337 156.448 29.6898C156.419 29.7044 156.397 29.7117 156.382 29.7117C156.367 29.7117 156.346 29.719 156.316 29.7337L156.313 29.73ZM150.606 14.825C150.606 14.825 150.614 14.8469 150.628 14.8469L150.606 14.825Z" fill="white"/>
<path d="M173.508 3.97121C173.807 3.91276 174.063 3.87988 174.271 3.87988C175.082 3.87988 175.813 4.02966 176.474 4.32923C177.581 4.8699 178.136 5.75397 178.136 6.98144C178.136 7.60979 178.286 8.12124 178.586 8.50848C178.944 8.98705 179.126 10.547 179.126 13.1846V13.9481C179.126 16.5565 179.305 18.0835 179.667 18.5328C180.595 19.6726 181.059 20.4946 181.059 21.0061C181.059 21.3348 180.774 21.4992 180.204 21.4992C179.875 21.4992 179.47 21.4554 178.991 21.3641C177.764 21.0937 177.146 20.6882 177.146 20.1512C177.146 19.943 177.055 19.8224 176.876 19.7932C176.697 19.764 176.533 19.8553 176.383 20.0635C176.171 20.3046 175.722 20.5202 175.035 20.7138C174.344 20.9074 173.625 21.0061 172.876 21.0061C171.915 21.0061 171.108 20.8417 170.446 20.5129C169.577 20.0635 168.992 19.563 168.693 19.0078C168.393 18.4525 168.244 17.5757 168.244 16.3775C168.244 15.2998 168.393 14.6239 168.693 14.3536C169.8 13.3051 171.572 12.7791 173.997 12.7791H174.626C175.765 12.8412 176.5 12.9142 176.829 13.0019L177.369 13.1809L177.234 12.1032C177.084 11.0548 176.934 10.3205 176.785 9.90035C176.635 9.48023 176.365 9.15144 175.974 8.91033C175.554 8.63999 174.911 8.50483 174.041 8.50483H173.007C171.659 8.53405 170.797 8.6473 170.421 8.84092C170.045 9.03819 169.573 9.61174 169.003 10.5725C168.525 11.4128 168.119 11.8329 167.791 11.8329C167.612 11.8329 167.498 11.7817 167.454 11.6758C167.411 11.5699 167.389 11.3543 167.389 11.0219C167.418 10.452 167.619 9.69577 167.995 8.75324C168.368 7.81072 168.707 7.2189 169.007 6.97779C169.697 6.43712 170.574 5.80877 171.637 5.08909C172.7 4.36941 173.325 3.99678 173.504 3.96391L173.508 3.97121ZM170.943 19.0333C170.881 18.8836 170.731 18.8105 170.494 18.8105C170.315 18.8105 170.253 18.8836 170.315 19.0333C170.373 19.1539 170.523 19.2123 170.764 19.2123C170.943 19.2123 171.005 19.1539 170.943 19.0333ZM176.744 15.2559C176.744 15.1354 175.904 15.0769 174.227 15.0769C172.817 15.0769 171.919 15.1427 171.531 15.2778C171.141 15.413 170.841 15.7674 170.633 16.3336C170.574 16.4542 170.541 16.6332 170.541 16.8743C170.541 17.5355 171.44 18.0141 173.237 18.3137C173.358 18.3429 173.508 18.3575 173.687 18.3575C173.986 18.3575 174.33 18.1785 174.721 17.8168C175.108 17.5173 175.546 17.0533 176.025 16.4213C176.503 15.7929 176.744 15.4021 176.744 15.2523V15.2559ZM176.744 6.03892C176.445 5.41057 175.711 5.0964 174.542 5.0964C173.913 5.0964 173.431 5.21695 173.102 5.45806L172.518 5.90741L174.271 6.04257C175.378 6.10468 176.131 6.19235 176.518 6.31291C176.759 6.37501 176.883 6.39693 176.902 6.37867C176.916 6.36405 176.865 6.25081 176.744 6.04257V6.03892ZM176.653 18.3831C176.982 18.0981 177.146 17.8497 177.146 17.6415C177.146 17.4332 177.103 17.3273 177.011 17.3273C176.861 17.3273 176.591 17.5684 176.2 18.047C175.78 18.5584 175.645 18.8105 175.795 18.8105C176.036 18.8105 176.317 18.668 176.65 18.3831H176.653Z" fill="white"/>
<path d="M196.077 19.5746C195.749 19.9034 195.38 20.0531 194.978 20.0239C194.572 19.9947 194.159 19.9107 193.743 19.7755C193.323 19.6403 192.888 19.5198 192.439 19.4175C191.989 19.3115 191.54 19.3663 191.091 19.5746C190.492 19.8741 190.163 20.2796 190.101 20.7874C190.042 21.2989 190.101 21.8724 190.28 22.5191C190.459 23.1657 190.714 23.8306 191.043 24.521C191.372 25.2115 191.635 25.8763 191.829 26.523C192.022 27.1696 192.092 27.7577 192.03 28.2984C191.967 28.8391 191.653 29.2592 191.087 29.5588C190.218 30.0373 189.341 30.3698 188.457 30.5488C187.573 30.7278 186.787 30.4721 186.097 29.7853C184.778 28.4372 183.85 27.0344 183.309 25.5804C182.769 24.1265 182.531 22.72 182.59 21.3537C182.652 19.991 182.995 18.7234 183.624 17.5544C184.252 16.3853 185.078 15.3953 186.097 14.588C186.484 14.2884 186.922 14.0327 187.401 13.8245C187.88 13.6162 188.362 13.4957 188.84 13.4628C189.319 13.4336 189.761 13.4993 190.166 13.6637C190.572 13.8281 190.879 14.135 191.087 14.5843C191.178 14.7925 191.2 15.0117 191.153 15.2346C191.109 15.4611 191.047 15.6766 190.974 15.8885C190.901 16.0967 190.853 16.3013 190.839 16.4949C190.824 16.6886 190.904 16.8785 191.087 17.0575C191.416 17.3863 191.829 17.5507 192.322 17.5507C192.815 17.5507 193.228 17.3863 193.557 17.0575C193.736 16.8785 193.805 16.6849 193.758 16.473C193.714 16.2648 193.652 16.0456 193.579 15.8227C193.502 15.5963 193.443 15.3807 193.4 15.1688C193.356 14.9606 193.407 14.7633 193.557 14.5843C193.885 14.2263 194.276 14.0765 194.726 14.135C195.175 14.1934 195.624 14.3432 196.074 14.5843C196.494 14.7925 196.793 15.1104 196.972 15.5268C197.151 15.947 197.235 16.4036 197.221 16.8968C197.206 17.39 197.093 17.8795 196.885 18.3581C196.676 18.8366 196.406 19.2421 196.074 19.5709L196.077 19.5746Z" fill="white"/>
<path d="M219.543 25.0545H215.042V20.5538H206.062V29.5553H201.562V7.07715H206.062V16.0786H215.042V20.5574H219.543V25.0582H224.043V29.5589H219.543V25.0582V25.0545ZM215.042 11.5742H219.543V16.075H215.042V11.5742ZM219.543 7.07715H224.043V11.5779H219.543V7.07715Z" fill="white"/>
<path d="M234.133 19.2601C233.954 19.9506 233.812 20.5716 233.706 21.1269C233.6 21.6822 233.578 22.2594 233.64 22.8585C233.761 23.7572 234.097 24.4622 234.652 24.97C235.207 25.4815 235.829 25.803 236.519 25.9381C237.209 26.0733 237.904 26.0222 238.609 25.781C239.314 25.5399 239.862 25.1235 240.249 24.5207C240.611 24.2504 240.998 24.0494 241.418 23.9143C241.838 23.7791 242.229 23.7499 242.587 23.8229C242.945 23.896 243.263 24.0714 243.529 24.338C243.8 24.6084 243.979 25.0139 244.07 25.5509C244.161 26.1792 243.964 26.793 243.486 27.3958C243.007 27.9949 242.423 28.5356 241.732 29.0141C241.042 29.4927 240.307 29.8982 239.529 30.227C238.751 30.5558 238.104 30.7494 237.597 30.8115C236.398 30.9613 235.281 30.8955 234.247 30.6106C233.213 30.3256 232.292 29.869 231.481 29.2406C230.67 28.6123 230.005 27.8232 229.479 26.8807C228.953 25.9381 228.617 24.8787 228.467 23.7097C228.288 22.2411 228.369 20.7068 228.716 19.103C229.059 17.4993 229.651 16.0234 230.491 14.6753C231.331 13.3273 232.373 12.1948 233.615 11.2815C234.857 10.3682 236.289 9.83486 237.907 9.68508C239.284 9.56452 240.344 9.79832 241.078 10.3828C241.812 10.9673 242.262 11.7163 242.426 12.6295C242.591 13.5428 242.51 14.5109 242.178 15.5302C241.849 16.5494 241.316 17.4335 240.581 18.1824C239.847 18.9313 238.926 19.4501 237.816 19.735C236.705 20.02 235.478 19.8629 234.13 19.2638L234.133 19.2601ZM234.853 16.8307C235.153 16.8307 235.511 16.8015 235.931 16.7394C236.351 16.6809 236.745 16.5458 237.122 16.3339C237.494 16.1257 237.798 15.8005 238.02 15.3658C238.243 14.9311 238.313 14.3246 238.221 13.5465C237.893 13.6086 237.553 13.7584 237.209 13.9958C236.866 14.237 236.526 14.5292 236.198 14.8726C235.869 15.216 235.584 15.5631 235.343 15.9065C235.102 16.2499 234.937 16.5567 234.849 16.8271L234.853 16.8307Z" fill="white"/>
<path d="M247.58 13.7401H245.056V13.1081C246.776 12.8012 248.46 11.3765 250.108 8.83022C251.544 6.60908 252.377 4.56329 252.607 2.68555H253.524V10.9235H257.656V13.7365H253.524V23.2092C253.659 24.4147 254.174 25.0175 255.073 25.0175C255.781 25.0175 256.64 24.6266 257.656 23.8412L257.999 24.5024C256.487 25.6714 255.292 26.6359 254.412 27.4031L251.368 30.0735C250.795 29.1347 249.98 28.2543 248.928 27.4323C247.723 26.4934 246.652 26.0258 245.713 26.0258V25.3938C246.955 25.3938 247.58 24.7618 247.58 23.4978V13.7365V13.7401Z" fill="white"/>
</svg>
